# xmcd
#
# Track frame offsets:
#	150
#	11850
#	23325
#	37050
#	45712
#	56775
#	83700
#	96562
#	110925
#	122812
#	135137
#	148150
#
# Disc length: 2147 seconds
#
# Revision: 0
# Processed by: cddbd v1.5.1PL0 Copyright (c) Steve Scherf et al.
# Submitted via: dBpowerAMP V4.0
#
DISCID=a908610c
DTITLE=John Hickman - Don't Mean Maybe
DYEAR=1900
DGENRE=Bluegrass
TTITLE0=Don't Mean Maybe 
TTITLE1=Salt River 
TTITLE2=Turkey Knob 
TTITLE3=Birmingham Fling 
TTITLE4=Sweet Dixie
TTITLE5=Sally Goodin' 
TTITLE6=Train 405
TTITLE7=Banjo Signal 
TTITLE8=Ghost Dance 
TTITLE9=Pike County Breakdown 
TTITLE10=Goin' To Town
TTITLE11=Dixie Breakdown 
EXTD=
EXTT0=
EXTT1=
EXTT2=
EXTT3=
EXTT4=
EXTT5=
EXTT6=
EXTT7=
EXTT8=
EXTT9=
EXTT10=
EXTT11=
PLAYORDER=
